<?xml version="1.0" encoding="utf-8"?>
<!-- Generator: Adobe Illustrator 21.1.0, SVG Export Plug-In . SVG Version: 6.00 Build 0)  -->
<svg version="1.1" id="Layer_1" xmlns="http://www.w3.org/2000/svg" xmlns:xlink="http://www.w3.org/1999/xlink" x="0px" y="0px"
	 viewBox="0 0 312.2 101.2" style="enable-background:new 0 0 312.2 101.2;" xml:space="preserve">
<style type="text/css">
	.st0{clip-path:url(#SVGID_2_);}
	.st1{clip-path:url(#SVGID_4_);fill:#004785;}
	.st2{clip-path:url(#SVGID_6_);}
	.st3{clip-path:url(#SVGID_8_);fill:#004785;}
	.st4{clip-path:url(#SVGID_10_);}
	.st5{clip-path:url(#SVGID_12_);fill:#004785;}
	.st6{clip-path:url(#SVGID_14_);}
	.st7{clip-path:url(#SVGID_16_);fill:#004785;}
	.st8{clip-path:url(#SVGID_18_);}
	.st9{clip-path:url(#SVGID_20_);fill:#D8232A;}
	.st10{clip-path:url(#SVGID_22_);}
	.st11{clip-path:url(#SVGID_24_);fill:#004785;}
	.st12{fill:none;stroke:#999999;stroke-linecap:square;stroke-miterlimit:10;}
	.st13{fill:#0AC8FD;}
	.st14{font-family:'Interstate-Light';}
	.st15{font-size:26px;}
	.st16{letter-spacing:4;}
	.st17{fill:#999999;}
	.st18{font-size:18px;}
	.st19{letter-spacing:2;}
</style>
<g>
	<g>
		<defs>
			<path id="SVGID_1_" d="M39.8,42.8l-0.1,0.1c-1.7,1.8-3.8,2.7-5.9,2.7c-4.4,0-7.5-3.3-7.5-7.8c0-4.5,3.2-7.8,7.5-7.8
				c2.1,0,4.1,0.9,5.9,2.7l0.1,0.1l2.8-3.4l-0.1-0.1c-2.3-2.8-5.1-4.1-8.6-4.1c-3.4,0-6.6,1.2-8.9,3.3c-2.5,2.3-3.8,5.5-3.8,9.2
				c0,3.8,1.3,7,3.8,9.3c2.3,2.1,5.4,3.3,8.9,3.3c3.4,0,6.2-1.3,8.6-4.1l0.1-0.1L39.8,42.8"/>
		</defs>
		<use xlink:href="#SVGID_1_"  style="overflow:visible;fill-rule:evenodd;clip-rule:evenodd;fill:#004785;"/>
		<clipPath id="SVGID_2_">
			<use xlink:href="#SVGID_1_"  style="overflow:visible;"/>
		</clipPath>
		<g class="st0">
			<defs>
				<rect id="SVGID_3_" x="0.9" y="-11.9" width="1440" height="3473"/>
			</defs>
			<use xlink:href="#SVGID_3_"  style="overflow:visible;fill:#004785;"/>
			<clipPath id="SVGID_4_">
				<use xlink:href="#SVGID_3_"  style="overflow:visible;"/>
			</clipPath>
			<rect x="16.3" y="20.4" class="st1" width="31.3" height="35"/>
		</g>
	</g>
	<g>
		<defs>
			<rect id="SVGID_5_" x="45.9" y="25.4" width="4.9" height="24.2"/>
		</defs>
		<use xlink:href="#SVGID_5_"  style="overflow:visible;fill-rule:evenodd;clip-rule:evenodd;fill:#004785;"/>
		<clipPath id="SVGID_6_">
			<use xlink:href="#SVGID_5_"  style="overflow:visible;"/>
		</clipPath>
		<g class="st2">
			<defs>
				<rect id="SVGID_7_" x="0.9" y="-11.9" width="1440" height="3473"/>
			</defs>
			<use xlink:href="#SVGID_7_"  style="overflow:visible;fill:#004785;"/>
			<clipPath id="SVGID_8_">
				<use xlink:href="#SVGID_7_"  style="overflow:visible;"/>
			</clipPath>
			<rect x="40.9" y="20.4" class="st3" width="14.9" height="34.2"/>
		</g>
	</g>
	<g>
		<defs>
			<path id="SVGID_9_" d="M69.9,44c-1.3,0.8-2.6,1.2-3.7,1.2c-1.6,0-2.3-0.8-2.3-2.7V29.7h5v-4.5h-5v-7.5l-4.9,2.6v4.9h-4.2v4.5h4.2
				v13.6c0,3.7,2.2,6.3,5.5,6.3c2.2,0,3.6-0.6,4.4-1.1l0.1,0l1.2-4.7L69.9,44"/>
		</defs>
		<use xlink:href="#SVGID_9_"  style="overflow:visible;fill-rule:evenodd;clip-rule:evenodd;fill:#004785;"/>
		<clipPath id="SVGID_10_">
			<use xlink:href="#SVGID_9_"  style="overflow:visible;"/>
		</clipPath>
		<g class="st4">
			<defs>
				<rect id="SVGID_11_" x="0.9" y="-11.9" width="1440" height="3473"/>
			</defs>
			<use xlink:href="#SVGID_11_"  style="overflow:visible;fill:#004785;"/>
			<clipPath id="SVGID_12_">
				<use xlink:href="#SVGID_11_"  style="overflow:visible;"/>
			</clipPath>
			<rect x="49.9" y="12.6" class="st5" width="25.3" height="42"/>
		</g>
	</g>
	<g>
		<defs>
			<rect id="SVGID_13_" x="73" y="25.4" width="5" height="24.2"/>
		</defs>
		<use xlink:href="#SVGID_13_"  style="overflow:visible;fill-rule:evenodd;clip-rule:evenodd;fill:#004785;"/>
		<clipPath id="SVGID_14_">
			<use xlink:href="#SVGID_13_"  style="overflow:visible;"/>
		</clipPath>
		<g class="st6">
			<defs>
				<rect id="SVGID_15_" x="0.9" y="-11.9" width="1440" height="3473"/>
			</defs>
			<use xlink:href="#SVGID_15_"  style="overflow:visible;fill:#004785;"/>
			<clipPath id="SVGID_16_">
				<use xlink:href="#SVGID_15_"  style="overflow:visible;"/>
			</clipPath>
			<rect x="68" y="20.4" class="st7" width="15" height="34.2"/>
		</g>
	</g>
	<g>
		<defs>
			<path id="SVGID_17_" d="M81.6,21.4C77,15,69.5,11.2,61.9,11.2c-7.6,0-15.2,3.8-19.7,10.2L42,21.7h5.7l0.1-0.1
				c3.9-4,8.9-6.1,14.1-6.1c5.2,0,10.3,2.1,14.1,6.1l0.1,0.1h5.7L81.6,21.4"/>
		</defs>
		<clipPath id="SVGID_18_">
			<use xlink:href="#SVGID_17_"  style="overflow:visible;"/>
		</clipPath>
		<g class="st8">
			<defs>
				<rect id="SVGID_19_" x="0.9" y="-11.9" width="1440" height="3473"/>
			</defs>
			<clipPath id="SVGID_20_">
				<use xlink:href="#SVGID_19_"  style="overflow:visible;"/>
			</clipPath>
			<rect x="37" y="6.2" class="st9" width="49.8" height="20.6"/>
		</g>
	</g>
	<g>
		<defs>
			<path id="SVGID_21_" d="M87.9,19.6c0,0.3-0.2,0.4-0.5,0.4h-0.7v-0.8h0.7C87.7,19.2,87.9,19.4,87.9,19.6z M88.4,19.6
				c0-0.6-0.4-0.9-0.9-0.9h-1.2v2.8h0.5v-1.1h0.5l0.6,1.1h0.6l-0.6-1.1C88.1,20.3,88.4,20.1,88.4,19.6z M89.8,20.2
				c0-1.5-1.1-2.6-2.6-2.6c-1.5,0-2.6,1.1-2.6,2.6c0,1.5,1.1,2.6,2.6,2.6C88.7,22.8,89.8,21.7,89.8,20.2z M89.4,20.2
				c0,1.2-0.9,2.2-2.2,2.2c-1.2,0-2.2-0.9-2.2-2.2C85,19,86,18,87.2,18C88.4,18,89.4,19,89.4,20.2z"/>
		</defs>
		<use xlink:href="#SVGID_21_"  style="overflow:visible;fill-rule:evenodd;clip-rule:evenodd;fill:#004785;"/>
		<clipPath id="SVGID_22_">
			<use xlink:href="#SVGID_21_"  style="overflow:visible;"/>
		</clipPath>
		<g class="st10">
			<defs>
				<rect id="SVGID_23_" x="0.9" y="-11.9" width="1440" height="3473"/>
			</defs>
			<use xlink:href="#SVGID_23_"  style="overflow:visible;fill:#004785;"/>
			<clipPath id="SVGID_24_">
				<use xlink:href="#SVGID_23_"  style="overflow:visible;"/>
			</clipPath>
			<rect x="79.6" y="12.6" class="st11" width="15.2" height="15.2"/>
		</g>
	</g>
	<g>
		<line class="st12" x1="120.9" y1="29.1" x2="120.9" y2="47.1"/>
		<text transform="matrix(1 0 0 1 151.9191 46.0826)" class="st13 st14 st15 st16">FINTECH</text>
	</g>
</g>
<text transform="matrix(1 0 0 1 20.0797 82.4759)" class="st17 st14 st18 st19">OPEN BANKING PROGRAM</text>
</svg>

